<?xml version="1.0" encoding="UTF-8" ?>
<svg xmlns="http://www.w3.org/2000/svg" version="1.1" width="320" height="200" viewBox="0 0 32 20">
    <defs>
        <linearGradient id="tile" x1="0" y1="0" x2="100%" y2="100%">
            <stop offset="0%" style="stop-color:rgb(255,255,255); stop-opacity:1" />
            <stop offset="100%" style="stop-color:rgb(200,200,200); stop-opacity:1" />
        </linearGradient>
    </defs>
    <path fill="url(#tile)" stroke="rgb(255,255,255)" stroke-width="0.1"
          d="M 5 2 L 6 1 L 7 1 L 8 2 L 7 3 L 6 3 L 5 2" />
    <path fill="url(#tile)" stroke="rgb(255,255,255)" stroke-width="0.1"
          d="M 7 3 L 8 2 L 9 2 L 10 3 L 9 4 L 8 4 L 7 3" />
    <path fill="url(#tile)" stroke="rgb(255,255,255)" stroke-width="0.1"
          d="M 9 2 L 10 1 L 11 1 L 12 2 L 11 3 L 10 3 L 9 2" />
    <path fill="url(#tile)" stroke="rgb(255,255,255)" stroke-width="0.1"
          d="M 11 3 L 12 2 L 13 2 L 14 3 L 13 4 L 12 4 L 11 3" />
    <path fill="url(#tile)" stroke="rgb(255,255,255)" stroke-width="0.1"
          d="M 17 2 L 18 1 L 19 1 L 20 2 L 19 3 L 18 3 L 17 2" />
    <path fill="url(#tile)" stroke="rgb(255,255,255)" stroke-width="0.1"
          d="M 25 2 L 26 1 L 27 1 L 28 2 L 27 3 L 26 3 L 25 2" />
    <path fill="url(#tile)" stroke="rgb(255,255,255)" stroke-width="0.1"
          d="M 27 3 L 28 2 L 29 2 L 30 3 L 29 4 L 28 4 L 27 3" />
    <path fill="url(#tile)" stroke="rgb(255,255,255)" stroke-width="0.1"
          d="M 3 5 L 4 4 L 5 4 L 6 5 L 5 6 L 4 6 L 3 5" />
    <path fill="url(#tile)" stroke="rgb(255,255,255)" stroke-width="0.1"
          d="M 15 5 L 16 4 L 17 4 L 18 5 L 17 6 L 16 6 L 15 5" />
    <path fill="url(#tile)" stroke="rgb(255,255,255)" stroke-width="0.1"
          d="M 19 5 L 20 4 L 21 4 L 22 5 L 21 6 L 20 6 L 19 5" />
    <path fill="url(#tile)" stroke="rgb(255,255,255)" stroke-width="0.1"
          d="M 21 4 L 22 3 L 23 3 L 24 4 L 23 5 L 22 5 L 21 4" />
    <path fill="url(#tile)" stroke="rgb(255,255,255)" stroke-width="0.1"
          d="M 23 5 L 24 4 L 25 4 L 26 5 L 25 6 L 24 6 L 23 5" />
    <path fill="url(#tile)" stroke="rgb(255,255,255)" stroke-width="0.1"
          d="M 5 6 L 6 5 L 7 5 L 8 6 L 7 7 L 6 7 L 5 6" />
    <path fill="url(#tile)" stroke="rgb(255,255,255)" stroke-width="0.1"
          d="M 7 7 L 8 6 L 9 6 L 10 7 L 9 8 L 8 8 L 7 7" />
    <path fill="url(#tile)" stroke="rgb(255,255,255)" stroke-width="0.1"
          d="M 9 6 L 10 5 L 11 5 L 12 6 L 11 7 L 10 7 L 9 6" />
    <path fill="url(#tile)" stroke="rgb(255,255,255)" stroke-width="0.1"
          d="M 11 7 L 12 6 L 13 6 L 14 7 L 13 8 L 12 8 L 11 7" />
    <path fill="url(#tile)" stroke="rgb(255,255,255)" stroke-width="0.1"
          d="M 13 6 L 14 5 L 15 5 L 16 6 L 15 7 L 14 7 L 13 6" />
    <path fill="url(#tile)" stroke="rgb(255,255,255)" stroke-width="0.1"
          d="M 15 7 L 16 6 L 17 6 L 18 7 L 17 8 L 16 8 L 15 7" />
    <path fill="url(#tile)" stroke="rgb(255,255,255)" stroke-width="0.1"
          d="M 17 6 L 18 5 L 19 5 L 20 6 L 19 7 L 18 7 L 17 6" />
    <path fill="url(#tile)" stroke="rgb(255,255,255)" stroke-width="0.1"
          d="M 19 7 L 20 6 L 21 6 L 22 7 L 21 8 L 20 8 L 19 7" />
    <path fill="url(#tile)" stroke="rgb(255,255,255)" stroke-width="0.1"
          d="M 21 6 L 22 5 L 23 5 L 24 6 L 23 7 L 22 7 L 21 6" />
    <path fill="url(#tile)" stroke="rgb(255,255,255)" stroke-width="0.1"
          d="M 23 7 L 24 6 L 25 6 L 26 7 L 25 8 L 24 8 L 23 7" />
    <path fill="url(#tile)" stroke="rgb(255,255,255)" stroke-width="0.1"
          d="M 25 6 L 26 5 L 27 5 L 28 6 L 27 7 L 26 7 L 25 6" />
    <path fill="url(#tile)" stroke="rgb(255,255,255)" stroke-width="0.1"
          d="M 1 8 L 2 7 L 3 7 L 4 8 L 3 9 L 2 9 L 1 8" />
    <path fill="url(#tile)" stroke="rgb(255,255,255)" stroke-width="0.1"
          d="M 5 8 L 6 7 L 7 7 L 8 8 L 7 9 L 6 9 L 5 8" />
    <path fill="url(#tile)" stroke="rgb(255,255,255)" stroke-width="0.1"
          d="M 7 9 L 8 8 L 9 8 L 10 9 L 9 10 L 8 10 L 7 9" />
    <path fill="url(#tile)" stroke="rgb(255,255,255)" stroke-width="0.1"
          d="M 9 8 L 10 7 L 11 7 L 12 8 L 11 9 L 10 9 L 9 8" />
    <path fill="url(#tile)" stroke="rgb(255,255,255)" stroke-width="0.1"
          d="M 11 9 L 12 8 L 13 8 L 14 9 L 13 10 L 12 10 L 11 9" />
    <path fill="url(#tile)" stroke="rgb(255,255,255)" stroke-width="0.1"
          d="M 13 8 L 14 7 L 15 7 L 16 8 L 15 9 L 14 9 L 13 8" />
    <path fill="url(#tile)" stroke="rgb(255,255,255)" stroke-width="0.1"
          d="M 15 9 L 16 8 L 17 8 L 18 9 L 17 10 L 16 10 L 15 9" />
    <path fill="url(#tile)" stroke="rgb(255,255,255)" stroke-width="0.1"
          d="M 17 8 L 18 7 L 19 7 L 20 8 L 19 9 L 18 9 L 17 8" />
    <path fill="url(#tile)" stroke="rgb(255,255,255)" stroke-width="0.1"
          d="M 19 9 L 20 8 L 21 8 L 22 9 L 21 10 L 20 10 L 19 9" />
    <path fill="url(#tile)" stroke="rgb(255,255,255)" stroke-width="0.1"
          d="M 21 8 L 22 7 L 23 7 L 24 8 L 23 9 L 22 9 L 21 8" />
    <path fill="url(#tile)" stroke="rgb(255,255,255)" stroke-width="0.1"
          d="M 23 9 L 24 8 L 25 8 L 26 9 L 25 10 L 24 10 L 23 9" />
    <path fill="url(#tile)" stroke="rgb(255,255,255)" stroke-width="0.1"
          d="M 25 8 L 26 7 L 27 7 L 28 8 L 27 9 L 26 9 L 25 8" />
    <path fill="url(#tile)" stroke="rgb(255,255,255)" stroke-width="0.1"
          d="M 1 10 L 2 9 L 3 9 L 4 10 L 3 11 L 2 11 L 1 10" />
    <path fill="url(#tile)" stroke="rgb(255,255,255)" stroke-width="0.1"
          d="M 5 10 L 6 9 L 7 9 L 8 10 L 7 11 L 6 11 L 5 10" />
    <path fill="url(#tile)" stroke="rgb(255,255,255)" stroke-width="0.1"
          d="M 7 11 L 8 10 L 9 10 L 10 11 L 9 12 L 8 12 L 7 11" />
    <path fill="url(#tile)" stroke="rgb(255,255,255)" stroke-width="0.1"
          d="M 9 10 L 10 9 L 11 9 L 12 10 L 11 11 L 10 11 L 9 10" />
    <path fill="url(#tile)" stroke="rgb(255,255,255)" stroke-width="0.1"
          d="M 11 11 L 12 10 L 13 10 L 14 11 L 13 12 L 12 12 L 11 11" />
    <path fill="url(#tile)" stroke="rgb(255,255,255)" stroke-width="0.1"
          d="M 13 10 L 14 9 L 15 9 L 16 10 L 15 11 L 14 11 L 13 10" />
    <path fill="url(#tile)" stroke="rgb(255,255,255)" stroke-width="0.1"
          d="M 15 11 L 16 10 L 17 10 L 18 11 L 17 12 L 16 12 L 15 11" />
    <path fill="url(#tile)" stroke="rgb(255,255,255)" stroke-width="0.1"
          d="M 17 10 L 18 9 L 19 9 L 20 10 L 19 11 L 18 11 L 17 10" />
    <path fill="url(#tile)" stroke="rgb(255,255,255)" stroke-width="0.1"
          d="M 19 11 L 20 10 L 21 10 L 22 11 L 21 12 L 20 12 L 19 11" />
    <path fill="url(#tile)" stroke="rgb(255,255,255)" stroke-width="0.1"
          d="M 21 10 L 22 9 L 23 9 L 24 10 L 23 11 L 22 11 L 21 10" />
    <path fill="url(#tile)" stroke="rgb(255,255,255)" stroke-width="0.1"
          d="M 23 11 L 24 10 L 25 10 L 26 11 L 25 12 L 24 12 L 23 11" />
    <path fill="url(#tile)" stroke="rgb(255,255,255)" stroke-width="0.1"
          d="M 27 11 L 28 10 L 29 10 L 30 11 L 29 12 L 28 12 L 27 11" />
    <path fill="url(#tile)" stroke="rgb(255,255,255)" stroke-width="0.1"
          d="M 1 12 L 2 11 L 3 11 L 4 12 L 3 13 L 2 13 L 1 12" />
    <path fill="url(#tile)" stroke="rgb(255,255,255)" stroke-width="0.1"
          d="M 3 13 L 4 12 L 5 12 L 6 13 L 5 14 L 4 14 L 3 13" />
    <path fill="url(#tile)" stroke="rgb(255,255,255)" stroke-width="0.1"
          d="M 7 13 L 8 12 L 9 12 L 10 13 L 9 14 L 8 14 L 7 13" />
    <path fill="url(#tile)" stroke="rgb(255,255,255)" stroke-width="0.1"
          d="M 9 12 L 10 11 L 11 11 L 12 12 L 11 13 L 10 13 L 9 12" />
    <path fill="url(#tile)" stroke="rgb(255,255,255)" stroke-width="0.1"
          d="M 11 13 L 12 12 L 13 12 L 14 13 L 13 14 L 12 14 L 11 13" />
    <path fill="url(#tile)" stroke="rgb(255,255,255)" stroke-width="0.1"
          d="M 13 12 L 14 11 L 15 11 L 16 12 L 15 13 L 14 13 L 13 12" />
    <path fill="url(#tile)" stroke="rgb(255,255,255)" stroke-width="0.1"
          d="M 15 13 L 16 12 L 17 12 L 18 13 L 17 14 L 16 14 L 15 13" />
    <path fill="url(#tile)" stroke="rgb(255,255,255)" stroke-width="0.1"
          d="M 17 12 L 18 11 L 19 11 L 20 12 L 19 13 L 18 13 L 17 12" />
    <path fill="url(#tile)" stroke="rgb(255,255,255)" stroke-width="0.1"
          d="M 19 13 L 20 12 L 21 12 L 22 13 L 21 14 L 20 14 L 19 13" />
    <path fill="url(#tile)" stroke="rgb(255,255,255)" stroke-width="0.1"
          d="M 21 12 L 22 11 L 23 11 L 24 12 L 23 13 L 22 13 L 21 12" />
    <path fill="url(#tile)" stroke="rgb(255,255,255)" stroke-width="0.1"
          d="M 27 13 L 28 12 L 29 12 L 30 13 L 29 14 L 28 14 L 27 13" />
    <path fill="url(#tile)" stroke="rgb(255,255,255)" stroke-width="0.1"
          d="M 7 15 L 8 14 L 9 14 L 10 15 L 9 16 L 8 16 L 7 15" />
    <path fill="url(#tile)" stroke="rgb(255,255,255)" stroke-width="0.1"
          d="M 9 14 L 10 13 L 11 13 L 12 14 L 11 15 L 10 15 L 9 14" />
    <path fill="url(#tile)" stroke="rgb(255,255,255)" stroke-width="0.1"
          d="M 11 15 L 12 14 L 13 14 L 14 15 L 13 16 L 12 16 L 11 15" />
    <path fill="url(#tile)" stroke="rgb(255,255,255)" stroke-width="0.1"
          d="M 13 14 L 14 13 L 15 13 L 16 14 L 15 15 L 14 15 L 13 14" />
    <path fill="url(#tile)" stroke="rgb(255,255,255)" stroke-width="0.1"
          d="M 15 15 L 16 14 L 17 14 L 18 15 L 17 16 L 16 16 L 15 15" />
    <path fill="url(#tile)" stroke="rgb(255,255,255)" stroke-width="0.1"
          d="M 17 14 L 18 13 L 19 13 L 20 14 L 19 15 L 18 15 L 17 14" />
    <path fill="url(#tile)" stroke="rgb(255,255,255)" stroke-width="0.1"
          d="M 19 15 L 20 14 L 21 14 L 22 15 L 21 16 L 20 16 L 19 15" />
    <path fill="url(#tile)" stroke="rgb(255,255,255)" stroke-width="0.1"
          d="M 21 14 L 22 13 L 23 13 L 24 14 L 23 15 L 22 15 L 21 14" />
    <path fill="url(#tile)" stroke="rgb(255,255,255)" stroke-width="0.1"
          d="M 25 14 L 26 13 L 27 13 L 28 14 L 27 15 L 26 15 L 25 14" />
    <path fill="url(#tile)" stroke="rgb(255,255,255)" stroke-width="0.1"
          d="M 1 16 L 2 15 L 3 15 L 4 16 L 3 17 L 2 17 L 1 16" />
    <path fill="url(#tile)" stroke="rgb(255,255,255)" stroke-width="0.1"
          d="M 5 16 L 6 15 L 7 15 L 8 16 L 7 17 L 6 17 L 5 16" />
    <path fill="url(#tile)" stroke="rgb(255,255,255)" stroke-width="0.1"
          d="M 7 17 L 8 16 L 9 16 L 10 17 L 9 18 L 8 18 L 7 17" />
    <path fill="url(#tile)" stroke="rgb(255,255,255)" stroke-width="0.1"
          d="M 9 16 L 10 15 L 11 15 L 12 16 L 11 17 L 10 17 L 9 16" />
    <path fill="url(#tile)" stroke="rgb(255,255,255)" stroke-width="0.1"
          d="M 11 17 L 12 16 L 13 16 L 14 17 L 13 18 L 12 18 L 11 17" />
    <path fill="url(#tile)" stroke="rgb(255,255,255)" stroke-width="0.1"
          d="M 13 16 L 14 15 L 15 15 L 16 16 L 15 17 L 14 17 L 13 16" />
    <path fill="url(#tile)" stroke="rgb(255,255,255)" stroke-width="0.1"
          d="M 15 17 L 16 16 L 17 16 L 18 17 L 17 18 L 16 18 L 15 17" />
    <path fill="url(#tile)" stroke="rgb(255,255,255)" stroke-width="0.1"
          d="M 17 16 L 18 15 L 19 15 L 20 16 L 19 17 L 18 17 L 17 16" />
    <path fill="url(#tile)" stroke="rgb(255,255,255)" stroke-width="0.1"
          d="M 19 17 L 20 16 L 21 16 L 22 17 L 21 18 L 20 18 L 19 17" />
    <path fill="url(#tile)" stroke="rgb(255,255,255)" stroke-width="0.1"
          d="M 21 16 L 22 15 L 23 15 L 24 16 L 23 17 L 22 17 L 21 16" />
    <path fill="url(#tile)" stroke="rgb(255,255,255)" stroke-width="0.1"
          d="M 25 16 L 26 15 L 27 15 L 28 16 L 27 17 L 26 17 L 25 16" />
    <path fill="url(#tile)" stroke="rgb(255,255,255)" stroke-width="0.1"
          d="M 27 17 L 28 16 L 29 16 L 30 17 L 29 18 L 28 18 L 27 17" />
    <path fill="url(#tile)" stroke="rgb(255,255,255)" stroke-width="0.1"
          d="M 9 18 L 10 17 L 11 17 L 12 18 L 11 19 L 10 19 L 9 18" />
    <path fill="url(#tile)" stroke="rgb(255,255,255)" stroke-width="0.1"
          d="M 17 18 L 18 17 L 19 17 L 20 18 L 19 19 L 18 19 L 17 18" />
    <path fill="none" stroke="rgb(0,0,0)" stroke-width="0.2"
          d="M 20 18 L 19 19 L 18 19 L 17 18 L 16 18 L 15 17 L 14 17 L 13 18 L 12 18 L 11 19 L 10 19 L 9 18 L 8 18 L 7 17 L 6 17 L 5 16 L 6 15 L 7 15 L 8 14 L 7 13 L 8 12 L 7 11 L 6 11 L 5 10 L 6 9 L 5 8 L 6 7 L 5 6 L 4 6 L 3 5 L 4 4 L 5 4 L 6 5 L 7 5 L 8 6 L 9 6 L 10 5 L 11 5 L 12 6 L 13 6 L 14 5 L 15 5 L 16 4 L 17 4 L 18 5 L 19 5 L 20 4 L 21 4 L 22 3 L 23 3 L 24 4 L 25 4 L 26 5 L 27 5 L 28 6 L 27 7 L 28 8 L 27 9 L 26 9 L 25 10 L 26 11 L 25 12 L 24 12 L 23 13 L 24 14 L 23 15 L 24 16 L 23 17 L 22 17 L 21 18 L 20 18 L 19 19" />
    <path fill="none" stroke="rgb(0,0,0)" stroke-width="0.2"
          d="M 30 17 L 29 18 L 28 18 L 27 17 L 26 17 L 25 16 L 26 15 L 25 14 L 26 13 L 27 13 L 28 12 L 27 11 L 28 10 L 29 10 L 30 11 L 29 12 L 30 13 L 29 14 L 28 14 L 27 15 L 28 16 L 29 16 L 30 17 L 29 18" />
    <path fill="none" stroke="rgb(0,0,0)" stroke-width="0.2"
          d="M 4 16 L 3 17 L 2 17 L 1 16 L 2 15 L 3 15 L 4 16 L 3 17" />
    <path fill="none" stroke="rgb(0,0,0)" stroke-width="0.2"
          d="M 6 13 L 5 14 L 4 14 L 3 13 L 2 13 L 1 12 L 2 11 L 1 10 L 2 9 L 1 8 L 2 7 L 3 7 L 4 8 L 3 9 L 4 10 L 3 11 L 4 12 L 5 12 L 6 13 L 5 14" />
    <path fill="none" stroke="rgb(0,0,0)" stroke-width="0.2"
          d="M 30 3 L 29 4 L 28 4 L 27 3 L 26 3 L 25 2 L 26 1 L 27 1 L 28 2 L 29 2 L 30 3 L 29 4" />
    <path fill="none" stroke="rgb(0,0,0)" stroke-width="0.2"
          d="M 20 2 L 19 3 L 18 3 L 17 2 L 18 1 L 19 1 L 20 2 L 19 3" />
    <path fill="none" stroke="rgb(0,0,0)" stroke-width="0.2"
          d="M 14 3 L 13 4 L 12 4 L 11 3 L 10 3 L 9 4 L 8 4 L 7 3 L 6 3 L 5 2 L 6 1 L 7 1 L 8 2 L 9 2 L 10 1 L 11 1 L 12 2 L 13 2 L 14 3 L 13 4" />
    <path fill="none" stroke="rgba(64,0,128,.3)" stroke-width="1"
          d="M 8.5 15 L 10.5 16 L 12.5 15 L 12.5 9 L 10.5 8 L 8.5 9 L 8.5 11 L 10.5 12" />
    <path fill="none" stroke="rgba(64,0,128,.3)" stroke-width="1"
          d="M 14.5 14 L 14.5 8 L 16.5 7 L 18.5 8 L 18.5 10 L 16.5 11" />
    <path fill="none" stroke="rgba(64,0,128,.3)" stroke-width="1"
          d="M 16.5 15 L 18.5 16 L 20.5 15 L 20.5 7 L 22.5 6 L 24.5 7 M 18.5 12 L 22.5 10" />
</svg>
